<svg width="48" height="48" viewBox="0 0 48 48" fill="none" xmlns="http://www.w3.org/2000/svg">
<path d="M0 31.5C0 30.6716 0.671573 30 1.5 30H6.5C7.32843 30 8 30.6716 8 31.5V31.5C8 32.3284 7.32843 33 6.5 33H1.5C0.671573 33 0 32.3284 0 31.5V31.5Z" fill="#1B344B"/>
<path d="M13 45.5C13 44.6716 13.6716 44 14.5 44H21.5C22.3284 44 23 44.6716 23 45.5V45.5C23 46.3284 22.3284 47 21.5 47H14.5C13.6716 47 13 46.3284 13 45.5V45.5Z" fill="#1B344B"/>
<path d="M13 24.5C13 23.6716 13.6716 23 14.5 23H26.5C27.3284 23 28 23.6716 28 24.5V24.5C28 25.3284 27.3284 26 26.5 26H14.5C13.6716 26 13 25.3284 13 24.5V24.5Z" fill="#1B344B"/>
<path d="M0 38.5C0 37.6716 0.671573 37 1.5 37H16.5C17.3284 37 18 37.6716 18 38.5V38.5C18 39.3284 17.3284 40 16.5 40H1.5C0.671573 40 0 39.3284 0 38.5V38.5Z" fill="#1B344B"/>
<path d="M0 45.5C0 44.6716 0.671573 44 1.5 44H8.5C9.32843 44 10 44.6716 10 45.5V45.5C10 46.3284 9.32843 47 8.5 47H1.5C0.671573 47 0 46.3284 0 45.5V45.5Z" fill="#1B344B"/>
<path d="M0 24.5C0 23.6716 0.671573 23 1.5 23H8.5C9.32843 23 10 23.6716 10 24.5V24.5C10 25.3284 9.32843 26 8.5 26H1.5C0.671573 26 0 25.3284 0 24.5V24.5Z" fill="#1B344B"/>
<path fill-rule="evenodd" clip-rule="evenodd" d="M18.7127 30C17.9213 30.8597 17.3946 31.8999 17.1526 33H13.5C12.6716 33 12 32.3284 12 31.5C12 30.6716 12.6716 30 13.5 30H18.7127Z" fill="#1B344B"/>
<path fill-rule="evenodd" clip-rule="evenodd" d="M39.4534 37H36.5C35.6716 37 35 37.6716 35 38.5C35 39.3284 35.6716 40 36.5 40H36.9423L39.4534 37ZM45.9739 37L43.4627 40H46.5C47.3284 40 48 39.3284 48 38.5C48 37.6716 47.3284 37 46.5 37H45.9739Z" fill="#1B344B"/>
<path fill-rule="evenodd" clip-rule="evenodd" d="M44.7487 26H46.5C46.8841 26 47.2346 25.8556 47.4999 25.6181C47.4291 25.5209 47.3454 25.4306 47.249 25.3499C46.6138 24.8182 45.6677 24.9021 45.136 25.5374L44.7487 26ZM38.2283 26L40.7394 23H33.5C32.6716 23 32 23.6716 32 24.5C32 25.3284 32.6716 26 33.5 26H38.2283Z" fill="#1B344B"/>
<path fill-rule="evenodd" clip-rule="evenodd" d="M33.5941 44H28.5039L29.7189 45.7043C29.9885 46.0824 30.4181 46.3144 30.8822 46.3324C31.3462 46.3504 31.7925 46.1524 32.0905 45.7963L33.5941 44ZM40.1146 44L37.6034 47H46.5001C47.3285 47 48.0001 46.3284 48.0001 45.5C48.0001 44.6716 47.3285 44 46.5001 44H40.1146Z" fill="#1B344B"/>
<path fill-rule="evenodd" clip-rule="evenodd" d="M38.8891 33H42.8013L45.3125 30H41.4002L38.8891 33ZM26.3237 32.4312C26.3159 32.4214 26.3083 32.4115 26.3008 32.4016L26.3501 32.3664L26.3237 32.4312ZM30.4862 33L28.7928 30.6249C28.6351 30.4037 28.4661 30.1953 28.2871 30H34.8798L32.3686 33H30.4862Z" fill="#1B344B"/>
<rect x="16" y="2" width="12" height="3" rx="1.5" fill="#1B344B"/>
<rect y="2" width="12" height="3" rx="1.5" fill="#1B344B"/>
<rect x="26" y="9" width="9" height="3" rx="1.5" fill="#1B344B"/>
<rect y="9" width="22" height="3" rx="1.5" fill="#1B344B"/>
<rect x="22" y="16" width="9" height="3" rx="1.5" fill="#1B344B"/>
<rect x="33" y="2" width="15" height="3" rx="1.5" fill="#1B344B"/>
<rect x="39" y="9" width="9" height="3" rx="1.5" fill="#1B344B"/>
<rect y="16" width="18" height="3" rx="1.5" fill="#1B344B"/>
<rect x="35" y="16" width="13" height="3" rx="1.5" fill="#1B344B"/>
<path fill-rule="evenodd" clip-rule="evenodd" d="M47.2486 25.3498C47.8839 25.8816 47.9678 26.8276 47.4361 27.4628L32.0901 45.7962C31.792 46.1523 31.3457 46.3503 30.8817 46.3322C30.4176 46.3142 29.9881 46.0823 29.7185 45.7041L22.2787 35.2689C21.7978 34.5943 21.9548 33.6576 22.6293 33.1767C23.3039 32.6958 24.2406 32.8528 24.7215 33.5273L31.0349 42.3828L45.1356 25.5372C45.6673 24.902 46.6134 24.8181 47.2486 25.3498Z" fill="#1B344B"/>
</svg>
